<?xml version="1.0" encoding="utf-8"?>
<!-- Generator: Adobe Illustrator 25.4.1, SVG Export Plug-In . SVG Version: 6.00 Build 0)  -->
<svg version="1.1" id="圖層_1" xmlns="http://www.w3.org/2000/svg" xmlns:xlink="http://www.w3.org/1999/xlink" x="0px" y="0px"
	 viewBox="0 0 500 500" style="enable-background:new 0 0 500 500;" xml:space="preserve">
<style type="text/css">
	.st0{fill:#287FFF;}
	.st1{fill:#2165CC;}
	.st2{fill:#143F80;}
</style>
<path class="st0" d="M80,378.03L80,378.03c-16.5,0-30-13.5-30-30V151.97c0-16.5,13.5-30,30-30h0c16.5,0,30,13.5,30,30v196.06
	C110,364.53,96.5,378.03,80,378.03z"/>
<g>
	<path class="st1" d="M420,121.97L420,121.97c-16.5,0-30,13.5-30,30v196.06c0,16.5,13.5,30,30,30h0c16.5,0,30-13.5,30-30V151.97
		C450,135.47,436.5,121.97,420,121.97z"/>
	<path class="st1" d="M335,72.77L335,72.77c-16.5,0-30,13.5-30,30v294.46c0,16.5,13.5,30,30,30h0c16.5,0,30-13.5,30-30V102.77
		C365,86.27,351.5,72.77,335,72.77z"/>
</g>
<path class="st2" d="M250.08,173.69L250.08,173.69c16.5,0,30-13.5,30-30v-90c0-16.21-13.03-29.52-29.14-29.98
	c-0.2-0.01-0.39-0.01-0.59-0.01c-0.09,0-0.18-0.01-0.27-0.01h0c-0.09,0-0.19,0.01-0.28,0.01c-5.04,0.02-10.14,1.3-14.8,3.99
	l-84.97,49.06c-4.94,2.85-8.76,6.92-11.3,11.61c-2.37,4.29-3.72,9.2-3.72,14.42v294.46c0,5.71,1.62,11.06,4.42,15.61
	c2.53,4.19,6.11,7.83,10.63,10.44L235,472.33c3.32,1.92,6.87,3.11,10.45,3.65c0.07,0.01,0.13,0.02,0.2,0.03
	c0.34,0.05,0.67,0.09,1.01,0.13c0.29,0.03,0.58,0.06,0.88,0.09c0.11,0.01,0.21,0.02,0.32,0.02c0.73,0.05,1.47,0.09,2.22,0.09h0
	c16.5,0,30-13.5,30-30v-90c0-16.5-13.5-30-30-30h0c-16.5,0-30,13.5-30,30v38.09L195,379.95V120.06l25.08-14.48v38.11
	C220.08,160.19,233.58,173.69,250.08,173.69z"/>
</svg>
